<?xml version="1.0" standalone="no"?>
<!DOCTYPE svg PUBLIC "-//W3C//DTD SVG 20010904//EN"
 "http://www.w3.org/TR/2001/REC-SVG-20010904/DTD/svg10.dtd">
<svg version="1.0" xmlns="http://www.w3.org/2000/svg"
 width="1024.000000pt" height="1024.000000pt" viewBox="0 0 1024.000000 1024.000000"
 preserveAspectRatio="xMidYMid meet">
<metadata>
Created by potrace 1.14, written by Peter Selinger 2001-2017
</metadata>
<g transform="translate(0.000000,1024.000000) scale(0.100000,-0.100000)"
fill="#000000" stroke="none">
<path d="M5073 8511 c-29 -14 -48 -32 -62 -60 -20 -39 -21 -56 -21 -456 0
-458 0 -461 61 -508 70 -53 162 -39 222 32 l27 33 0 434 c0 365 -2 440 -15
464 -36 69 -134 97 -212 61z"/>
<path d="M6363 8095 c-50 -31 -51 -32 -227 -441 -91 -213 -99 -248 -70 -310
42 -88 168 -112 245 -46 18 14 44 54 59 87 15 33 75 166 134 296 116 258 122
284 83 354 -26 47 -92 85 -147 85 -19 0 -53 -11 -77 -25z"/>
<path d="M4195 8096 c-37 -16 -82 -67 -91 -102 -14 -56 4 -123 84 -309 139
-323 148 -335 244 -342 42 -3 61 1 93 19 50 29 85 81 85 125 0 19 -31 114 -69
211 -38 98 -81 208 -96 246 -30 81 -64 130 -105 151 -36 18 -104 19 -145 1z"/>
<path d="M3554 7832 c-70 -33 -110 -127 -84 -194 8 -18 50 -85 95 -148 45 -63
113 -160 151 -214 80 -114 105 -136 165 -143 52 -5 121 26 152 68 28 39 33
108 12 150 -41 78 -298 449 -325 469 -42 30 -115 35 -166 12z"/>
<path d="M7525 7281 c-50 -24 -531 -397 -558 -433 -62 -83 -4 -223 102 -244
76 -16 59 -26 569 361 85 64 112 104 112 164 0 65 -34 120 -90 149 -54 27 -83
27 -135 3z"/>
<path d="M2692 7254 c-56 -29 -77 -69 -77 -148 l0 -68 46 -42 c54 -49 515
-381 573 -413 48 -27 86 -29 133 -7 71 34 109 122 84 196 -16 47 -45 73 -276
240 -110 79 -233 168 -273 198 -62 45 -81 54 -125 57 -35 2 -63 -2 -85 -13z"/>
<path d="M4915 7094 c-270 -41 -510 -120 -767 -250 -371 -189 -670 -457 -903
-809 -114 -172 -173 -298 -230 -485 l-31 -104 -95 -12 c-195 -25 -373 -80
-564 -174 -573 -285 -879 -906 -750 -1521 30 -141 101 -304 193 -444 64 -97
249 -281 347 -345 207 -134 406 -200 670 -221 66 -5 381 -9 700 -8 l579 2 36
-94 c44 -115 69 -164 130 -254 135 -199 336 -349 570 -427 224 -75 509 -71
735 9 338 122 612 411 692 730 l8 32 700 4 c675 4 703 4 797 25 346 78 592
238 791 515 145 202 217 434 217 701 0 74 -7 172 -15 220 -72 413 -344 767
-742 965 -171 86 -363 134 -582 147 l-109 7 -7 56 c-40 342 -183 683 -398 955
-350 440 -827 705 -1410 781 -146 19 -438 18 -562 -1z m149 -594 c155 -33 280
-76 421 -146 288 -142 542 -376 708 -652 77 -128 166 -367 167 -445 0 -79 -73
-126 -144 -92 -44 21 -47 25 -91 162 -129 392 -486 741 -899 878 -395 131
-806 104 -1175 -79 -173 -86 -294 -178 -464 -357 -108 -114 -116 -119 -154
-119 -73 0 -116 69 -87 139 20 48 168 215 275 311 248 223 574 370 929 420
109 15 401 4 514 -20z m291 -879 c157 -56 293 -196 353 -362 l26 -74 3 -812 2
-812 50 -62 c112 -139 161 -273 168 -464 5 -112 2 -143 -17 -219 -43 -173
-113 -291 -246 -415 -123 -115 -283 -183 -480 -206 -63 -7 -218 10 -294 31
-136 39 -299 152 -391 270 -133 173 -187 358 -168 576 16 168 65 291 175 431
l54 69 0 802 c0 883 -2 858 63 980 41 79 154 192 233 234 94 49 161 62 294 58
86 -3 130 -9 175 -25z m-984 -90 c38 -38 41 -106 7 -146 -22 -24 -30 -26 -128
-30 -129 -6 -166 5 -192 57 -23 45 -18 85 17 122 23 25 28 26 145 26 121 0
122 0 151 -29z m-1 -436 c13 -14 24 -41 27 -67 4 -37 1 -49 -22 -76 l-27 -32
-123 0 c-122 0 -125 0 -149 27 -33 35 -40 73 -23 114 25 61 43 66 203 61 81
-3 94 -6 114 -27z m3282 -148 c171 -45 351 -149 479 -278 336 -339 384 -858
114 -1234 -54 -75 -172 -191 -245 -240 -78 -53 -202 -110 -295 -137 -80 -23
-80 -23 -758 -23 l-679 0 -24 28 c-34 39 -33 95 2 128 l26 24 616 5 c592 6
620 7 694 27 184 52 317 129 424 246 76 84 119 155 157 264 28 80 31 99 31
213 0 146 -15 214 -75 337 -99 202 -300 363 -529 425 -114 30 -307 31 -420 0
-84 -22 -219 -82 -294 -130 -69 -44 -116 -44 -162 2 -37 37 -41 59 -20 110 34
81 294 211 503 251 118 22 330 14 455 -18z m-4428 -213 c60 -21 147 -100 177
-161 31 -65 32 -169 2 -235 -26 -57 -88 -119 -151 -150 -64 -31 -176 -32 -243
-1 -255 116 -229 471 41 554 43 13 125 10 174 -7z m-920 -45 c41 -48 35 -85
-25 -160 -95 -119 -146 -260 -158 -441 -5 -82 -10 -100 -29 -121 -48 -51 -125
-37 -156 28 -35 72 2 306 69 453 48 103 119 215 156 246 46 39 108 36 143 -5z
m2047 -9 c24 -13 49 -61 49 -95 0 -43 -27 -82 -62 -93 -52 -16 -221 -9 -251
11 -54 35 -56 136 -4 172 25 18 236 22 268 5z m1969 -200 c71 -36 112 -127 90
-197 -40 -124 -180 -162 -274 -75 -86 81 -68 219 36 271 54 26 98 27 148 1z
m-1964 -238 c29 -23 44 -54 44 -92 0 -75 -45 -100 -182 -100 -105 0 -133 10
-161 58 -24 41 -16 94 18 128 23 23 31 24 142 24 97 0 122 -4 139 -18z m2598
-180 c100 -45 175 -156 183 -272 7 -92 -10 -146 -62 -198 l-44 -43 -183 3
c-174 3 -185 4 -214 26 -57 43 -79 96 -79 192 0 73 4 93 28 142 35 70 113 143
176 163 57 18 135 13 195 -13z m-3249 -37 c140 -68 211 -250 155 -398 -16 -44
-31 -64 -60 -83 -38 -25 -39 -25 -230 -22 l-191 3 -39 41 c-47 50 -64 107 -57
190 18 226 232 363 422 269z m666 -233 c48 -54 35 -129 -28 -161 -12 -6 -69
-11 -126 -11 -90 0 -108 3 -130 20 -48 38 -55 120 -13 158 30 28 47 31 165 29
103 -3 103 -3 132 -35z m-2166 -42 c16 -17 29 -43 32 -69 5 -36 2 -44 -30 -76
-47 -47 -101 -49 -149 -6 -28 25 -33 36 -33 74 0 53 30 93 79 105 44 12 70 4
101 -28z m409 -424 c20 -8 39 -27 49 -49 26 -54 22 -84 -17 -123 -28 -28 -42
-34 -76 -34 -34 0 -48 6 -76 34 -57 57 -43 140 30 172 40 17 49 17 90 0z
m1446 -121 c55 -29 67 -94 26 -142 l-24 -28 -568 -3 c-402 -2 -577 1 -596 9
-14 6 -34 26 -43 45 -23 48 -6 100 39 120 49 21 1125 20 1166 -1z"/>
<path d="M5091 5409 c-105 -20 -197 -93 -247 -194 l-29 -60 -3 -874 -3 -873
-53 -60 c-107 -118 -153 -250 -143 -411 10 -177 92 -324 235 -421 89 -61 166
-87 277 -93 165 -10 304 43 419 160 114 115 166 238 166 397 0 150 -47 272
-145 378 l-55 60 0 849 c0 937 2 904 -63 1000 -44 64 -137 126 -212 141 -65
13 -81 14 -144 1z m139 -307 c24 -25 29 -39 35 -108 4 -43 6 -452 3 -909 -2
-456 -3 -837 -1 -846 2 -9 15 -21 28 -27 40 -18 105 -83 127 -126 13 -26 23
-68 26 -112 4 -61 1 -80 -20 -126 -53 -114 -143 -173 -268 -173 -90 0 -148 23
-205 81 -138 141 -103 366 71 460 l34 19 0 903 c0 960 0 953 47 981 36 21 92
13 123 -17z"/>
<path d="M2339 6470 c-73 -22 -126 -99 -116 -170 7 -51 41 -107 78 -126 29
-15 532 -84 613 -84 113 0 183 136 125 240 -39 68 -68 77 -375 116 -299 37
-287 36 -325 24z"/>
<path d="M7995 6135 c-22 -9 -121 -46 -220 -82 -210 -78 -248 -105 -260 -186
-6 -38 -3 -55 16 -94 49 -98 129 -117 266 -62 43 17 143 55 223 85 151 57 184
78 206 131 29 67 4 150 -58 196 -35 26 -120 32 -173 12z"/>
</g>
</svg>
